# xmcd
#
# Track frame offsets:
#	150
#	12364
#	23832
#	34618
#	50711
#	63838
#	78107
#	95879
#	116028
#	131467
#	149073
#	168928
#	178501
#	190854
#	211922
#	227598
#	239401
#	253196
#	269137
#	295771
#
# Disc length: 4145 seconds
#
# Revision: 0
# Processed by: cddbd v1.5.1PL0 Copyright (c) Steve Scherf et al.
# Submitted via: dBpowerAMP V4.0
#
DISCID=24102f14
DTITLE=Willie Nelson - Greatest Hits ( And Some That Will Be )
DYEAR=1981
DGENRE=Country
TTITLE0=Railroad Lady
TTITLE1=Heartache Of A Fool
TTITLE2=Blue Eyes Crying In The Rain
TTITLE3=Whiskey River
TTITLE4=Good Hearted Woman
TTITLE5=My Heroes Have Always Been Cowboys
TTITLE6=Help Me Make It Through The Night
TTITLE7=Angel Flying Too Close To The Ground
TTITLE8=I'd Have To Be Crazy
TTITLE9=Faded Love
TTITLE10=Georgia On My Mind
TTITLE11=If You've Got The Money, I've Got The Time
TTITLE12=Look What Thoughts Will Do
TTITLE13=Uncloudy Day
TTITLE14=Mammas Don't Let Your Babies Grow Up To Be Cowboys
TTITLE15=On The Road Again
TTITLE16=Heartbreak Hotel
TTITLE17=If You Could Touch Her At All
TTITLE18=Till I Gain Control Again
TTITLE19=Stay A Little Longer
EXTD=
EXTT0=
EXTT1=
EXTT2=
EXTT3=
EXTT4=
EXTT5=
EXTT6=
EXTT7=
EXTT8=
EXTT9=
EXTT10=
EXTT11=
EXTT12=
EXTT13=
EXTT14=
EXTT15=
EXTT16=
EXTT17=
EXTT18=
EXTT19=
PLAYORDER=
